<?xml version="1.0" encoding="utf-8"?>
<!-- Generator: Adobe Illustrator 16.0.0, SVG Export Plug-In . SVG Version: 6.00 Build 0)  -->
<!DOCTYPE svg PUBLIC "-//W3C//DTD SVG 1.1//EN" "http://www.w3.org/Graphics/SVG/1.1/DTD/svg11.dtd">
<svg version="1.1" xmlns="http://www.w3.org/2000/svg" xmlns:xlink="http://www.w3.org/1999/xlink" x="0px" y="0px" width="500px"
	 height="500px" viewBox="0 0 500 500" enable-background="new 0 0 500 500" xml:space="preserve">
<g id="Logo_1" display="none">
	<text transform="matrix(1.0328 0 0 1 154.3081 272.3809)" display="inline" font-family="'oktober'" font-size="39.9629">Brilliance</text>
	<g display="inline">
		<g>
			<path d="M173.079,293.849c-37.941-29.131-55.515-79.376-45.995-125.044c8.65-41.493,38.789-76.671,77.896-91.551
				c40.667-15.473,87.806-8.652,121.597,17.688c35.534,27.697,52.902,70.817,48.064,115.362
				c-3.272,30.131-19.066,58.087-41.325,78.24c-2.283,2.067-4.655,4.059-7.1,5.934c-3.967,3.043-10.143,5.681-12.694,10.036
				c-2.112,3.607-1.534,8.365-1.534,12.388c0,7.869,0,15.737,0,23.606c2.75-3.611,5.499-7.223,8.249-10.834
				c-46.07,6.596-92.141,13.191-138.211,19.786c-0.43,0.062-0.86,0.123-1.291,0.185c-4.863,0.696-8.248,6.318-8.248,10.834
				c0,6.53,5.137,10.698,11.235,11.235c44.889,3.949,89.778,7.898,134.667,11.849c0.051,0.004,0.103,0.009,0.153,0.014
				c-0.995-7.356-1.991-14.713-2.986-22.069c-41.819,10.611-83.638,21.222-125.458,31.832c-10.434,2.647-11.063,19.414,0,21.668
				c33.705,6.864,67.41,13.729,101.115,20.594c-2.238-5.502-4.477-11.003-6.715-16.505c-4.161,5.825-8.321,11.65-12.482,17.475
				c3.233-1.854,6.468-3.709,9.701-5.564c-10.572,0-21.145,0-31.717,0c-14.49,0-14.49,22.471,0,22.471c10.118,0,20.236,0,30.354,0
				c7.301,0,10.55-4.845,14.301-10.096c3.082-4.314,6.164-8.629,9.246-12.943c4.079-5.711,0.013-15.135-6.715-16.505
				c-33.704-6.864-67.409-13.729-101.114-20.594c0,7.223,0,14.445,0,21.668c41.819-10.611,83.638-21.222,125.457-31.832
				c4.831-1.227,8.249-5.914,8.249-10.834c0-6.53-5.137-10.698-11.235-11.235c-44.889-3.949-89.778-7.898-134.667-11.849
				c-0.051-0.004-0.102-0.009-0.153-0.014c0.996,7.356,1.991,14.713,2.987,22.069c46.07-6.596,92.14-13.191,138.21-19.786
				c0.431-0.062,0.86-0.123,1.29-0.185c4.863-0.696,8.249-6.318,8.249-10.834c0-10.107,0-20.216,0-30.323
				c-1.855,3.233-3.71,6.468-5.564,9.701c45.404-27.732,71.779-81.031,68.859-133.724c-2.603-46.977-28.074-89.838-67.111-115.74
				c-39.048-25.91-90.602-30.922-134.114-13.877c-43.311,16.966-76.556,53.655-89.188,98.437
				c-7.928,28.104-6.941,58.813,2.268,86.466c9.617,28.877,28.116,53.367,52.131,71.806c4.871,3.74,12.568,0.755,15.372-4.03
				C180.499,303.435,177.926,297.57,173.079,293.849L173.079,293.849z"/>
		</g>
	</g>
	<path display="inline" d="M245.41,213.259c0,8.23-2.861,15.278-8.581,21.15c-5.721,5.87-12.698,8.906-20.925,9.107h-34.172
		c-8.129-0.301-15.03-3.385-20.698-9.258c-5.672-5.871-8.506-12.872-8.506-20.999h0.151v-90.172h29.807v90.172h32.967v-90.172
		h29.807v90.172H245.41z"/>
	<path display="inline" d="M340.172,172.237c-4.866,5.773-10.914,9.311-18.141,10.612h21.979v90.174h-30.257v-74.818h-31.612v14.753
		v30.409c-8.23,0-15.305-2.91-21.226-8.73c-5.924-5.821-8.933-12.894-9.034-21.228h-0.3v-60.515h-0.302
		c0-8.29,2.91-15.378,8.731-21.271c5.817-5.892,12.896-8.888,21.226-8.986v-0.151h66.087v29.658h0.149
		C347.473,159.769,345.039,166.468,340.172,172.237z M313.753,182.85h3.463v-29.956h-35.075v29.956H313.753z"/>
	<g display="inline">
		<path d="M469,31v440H29V31H469 M499,1H-1v500h500V1L499,1z"/>
		<path fill="#FFFFFF" d="M471,29v444H27V29H471 M499,1H-1v500h500V1L499,1z"/>
		<path d="M474,26v450H24V26H474 M499,1H-1v500h500V1L499,1z"/>
		<path fill="#FFFFFF" d="M482,18v466H16V18H482 M499,1H-1v500h500V1L499,1z"/>
		<path d="M485,15v472H13V15H485 M499,1H-1v500h500V1L499,1z"/>
	</g>
</g>
<g id="logo_2" display="none">
	<text transform="matrix(0.7135 0 0 1 60.1167 469.9355)" display="inline" font-family="'NoClocks'" font-size="85.7113">Brilliance</text>
	<g display="inline">
		<g>
			<path d="M178.111,266.98c-38.345-29.467-53.9-80.734-40.503-126.586c12.07-41.312,47.254-72.358,89.084-81.268
				c42.92-9.142,87.376,8.18,115.038,41.788c28.785,34.974,33.394,86.358,12.768,126.757c-4.762,9.325-10.768,17.901-17.804,25.639
				c-3.636,3.998-7.589,7.698-11.696,11.204c-2.05,1.749-4.185,3.383-6.346,4.99c-3.111,2.314-7.263,3.988-9.285,7.441
				c-2.765,4.719-1.434,12.794-1.434,17.989c0,5.217,0,10.434,0,15.65c2.569-3.375,5.139-6.75,7.709-10.125
				c-43.459,6.222-86.917,12.442-130.375,18.664c-4.544,0.65-7.708,5.904-7.708,10.125c0,6.104,4.801,9.999,10.5,10.5
				c42,3.695,84,7.391,126,11.086c-0.931-6.875-1.861-13.75-2.791-20.625c-39.083,9.917-78.167,19.833-117.25,29.75
				c-9.751,2.475-10.339,18.145,0,20.25c31.5,6.415,63,12.831,94.5,19.246c-2.092-5.142-4.184-10.283-6.275-15.425
				c-3.889,5.444-7.777,10.889-11.666,16.332c3.022-1.733,6.044-3.467,9.066-5.2c-9.881,0-19.761,0-29.642,0
				c-13.542,0-13.542,21,0,21c9.542,0,19.083,0,28.625,0c6.944,0,9.913-4.963,13.447-9.91c2.768-3.874,5.534-7.748,8.302-11.622
				c3.812-5.337,0.012-14.145-6.275-15.425c-31.499-6.415-62.999-12.831-94.499-19.246c0,6.75,0,13.5,0,20.25
				c39.083-9.917,78.166-19.833,117.249-29.75c4.516-1.146,7.709-5.526,7.709-10.125c0-6.104-4.801-9.999-10.5-10.5
				c-42-3.695-84-7.391-126-11.086c0.931,6.875,1.861,13.75,2.792,20.625c43.458-6.222,86.917-12.442,130.375-18.664
				c4.545-0.65,7.709-5.904,7.709-10.125c0-9.446,0-18.894,0-28.34c-1.733,3.022-3.467,6.044-5.2,9.066
				c44.613-27.25,69.554-80.867,63.685-132.439c-5.269-46.306-33.955-87.688-75.734-108.527
				c-42.625-21.261-94.456-18.677-134.878,6.425c-39.917,24.788-64.362,69.19-65.12,115.992
				c-0.719,44.341,21.019,85.602,55.828,112.351c4.551,3.497,11.747,0.704,14.366-3.767
				C185.046,275.938,182.64,270.461,178.111,266.98L178.111,266.98z"/>
		</g>
	</g>
	<path display="inline" d="M245.71,191.663c0,7.691-2.674,14.279-8.019,19.766c-5.347,5.486-11.868,8.324-19.557,8.512h-31.936
		c-7.597-0.282-14.047-3.164-19.344-8.653c-5.301-5.486-7.95-12.029-7.95-19.625h0.141V107.39h27.857v84.273h30.811V107.39h27.856
		v84.273H245.71z"/>
	<path display="inline" d="M334.272,153.325c-4.548,5.395-10.2,8.701-16.953,9.918h20.54v84.275h-28.277v-69.924h-29.544v13.788
		v28.419c-7.692,0-14.304-2.72-19.837-8.16c-5.536-5.44-8.349-12.05-8.443-19.838h-0.28v-56.556h-0.282
		c0-7.747,2.72-14.372,8.16-19.88c5.438-5.506,12.053-8.307,19.837-8.398v-0.141h61.764v27.718h0.14
		C341.096,141.671,338.821,147.933,334.272,153.325z M309.582,163.243h3.236v-27.996h-32.78v27.996H309.582z"/>
	<g display="inline">
		<path d="M485,15v472H13V15H485 M499,1H-1v500h500V1L499,1z"/>
	</g>
</g>
<g id="logo_2_inverted" display="none">
	<g display="inline">
		<rect x="6" y="9" width="485" height="485"/>
		<path fill="#FFFFFF" d="M484,16v470H14V16H484 M499,1H-1v500h500V1L499,1z"/>
	</g>
	
		<text transform="matrix(0.7135 0 0 1 60.1167 469.9355)" display="inline" fill="#FFFFFF" font-family="'NoClocks'" font-size="85.7113">Brilliance</text>
	<g display="inline">
		<g>
			<path fill="#FFFFFF" d="M178.111,266.98c-38.345-29.467-53.9-80.734-40.503-126.586c12.07-41.312,47.254-72.358,89.084-81.268
				c42.92-9.142,87.376,8.18,115.038,41.788c28.785,34.974,33.394,86.358,12.768,126.757c-4.762,9.325-10.768,17.901-17.804,25.639
				c-3.636,3.998-7.589,7.698-11.696,11.204c-2.05,1.749-4.185,3.383-6.346,4.99c-3.111,2.314-7.263,3.988-9.285,7.441
				c-2.765,4.719-1.434,12.794-1.434,17.989c0,5.217,0,10.434,0,15.65c2.569-3.375,5.139-6.75,7.709-10.125
				c-43.459,6.222-86.917,12.442-130.375,18.664c-4.544,0.65-7.708,5.904-7.708,10.125c0,6.104,4.801,9.999,10.5,10.5
				c42,3.695,84,7.391,126,11.086c-0.931-6.875-1.861-13.75-2.791-20.625c-39.083,9.917-78.167,19.833-117.25,29.75
				c-9.751,2.475-10.339,18.145,0,20.25c31.5,6.415,63,12.831,94.5,19.246c-2.092-5.142-4.184-10.283-6.275-15.425
				c-3.889,5.444-7.777,10.889-11.666,16.332c3.022-1.733,6.044-3.467,9.066-5.2c-9.881,0-19.761,0-29.642,0
				c-13.542,0-13.542,21,0,21c9.542,0,19.083,0,28.625,0c6.944,0,9.913-4.963,13.447-9.91c2.768-3.874,5.534-7.748,8.302-11.622
				c3.812-5.337,0.012-14.145-6.275-15.425c-31.499-6.415-62.999-12.831-94.499-19.246c0,6.75,0,13.5,0,20.25
				c39.083-9.917,78.166-19.833,117.249-29.75c4.516-1.146,7.709-5.526,7.709-10.125c0-6.104-4.801-9.999-10.5-10.5
				c-42-3.695-84-7.391-126-11.086c0.931,6.875,1.861,13.75,2.792,20.625c43.458-6.222,86.917-12.442,130.375-18.664
				c4.545-0.65,7.709-5.904,7.709-10.125c0-9.446,0-18.894,0-28.34c-1.733,3.022-3.467,6.044-5.2,9.066
				c44.613-27.25,69.554-80.867,63.685-132.439c-5.269-46.306-33.955-87.688-75.734-108.527
				c-42.625-21.261-94.456-18.677-134.878,6.425c-39.917,24.788-64.362,69.19-65.12,115.992
				c-0.719,44.341,21.019,85.602,55.828,112.351c4.551,3.497,11.747,0.704,14.366-3.767
				C185.046,275.938,182.64,270.461,178.111,266.98L178.111,266.98z"/>
		</g>
	</g>
	<path display="inline" fill="#FFFFFF" d="M245.71,191.663c0,7.691-2.674,14.279-8.019,19.766
		c-5.347,5.486-11.868,8.324-19.557,8.512h-31.936c-7.597-0.282-14.047-3.164-19.344-8.653c-5.301-5.486-7.95-12.029-7.95-19.625
		h0.141V107.39h27.857v84.273h30.811V107.39h27.856v84.273H245.71z"/>
	<path display="inline" fill="#FFFFFF" d="M334.272,153.325c-4.548,5.395-10.2,8.701-16.953,9.918h20.54v84.275h-28.277v-69.924
		h-29.544v13.788v28.419c-7.692,0-14.304-2.72-19.837-8.16c-5.536-5.44-8.349-12.05-8.443-19.838h-0.28v-56.556h-0.282
		c0-7.747,2.72-14.372,8.16-19.88c5.438-5.506,12.053-8.307,19.837-8.398v-0.141h61.764v27.718h0.14
		C341.096,141.671,338.821,147.933,334.272,153.325z M309.582,163.243h3.236v-27.996h-32.78v27.996H309.582z"/>
</g>
<g id="logo_inverted_final">
	<g>
		<path fill="#FFFFFF" d="M114.422,454.508c0,4.343-1.264,8.028-3.792,11.057c-2.528,2.914-5.484,4.371-8.868,4.371H62.624v-43.198
			c0-1.771,0.468-3.285,1.407-4.543c0.937-1.256,2.038-1.886,3.302-1.886c1.182,0,2.171,0.643,2.966,1.929
			c0.795,1.285,1.192,2.785,1.192,4.5v11.914h31.434c3.18,0,5.891,1.572,8.134,4.714C113.3,446.508,114.422,450.222,114.422,454.508
			z M105.004,457.508v-6.515H71.491v6.515H105.004z"/>
		<path fill="#FFFFFF" d="M127.569,463.822c0,1.869-0.459,3.354-1.376,4.458c-0.917,1.104-2.009,1.655-3.272,1.655
			c-1.223,0-2.293-0.54-3.21-1.619c-0.917-1.079-1.376-2.585-1.376-4.518c-0.123-1.022-0.123-4.205,0-9.547
			c0.04-4.147,1.284-7.699,3.73-10.654c2.364-2.897,5.238-4.347,8.623-4.347h24.462c3.75,0,5.646,2.087,5.688,6.257
			c0.04,1.943-0.439,3.501-1.438,4.671c-1,1.172-2.416,1.758-4.25,1.758h-27.581V463.822z"/>
		<path fill="#FFFFFF" d="M174.352,426.565c0.041,1.372-0.224,2.571-0.795,3.6c-0.571,1.029-1.274,1.787-2.11,2.271
			c-0.836,0.486-1.723,0.658-2.66,0.515c-0.938-0.142-1.753-0.729-2.446-1.757c-0.733-0.972-1.162-2.101-1.284-3.386
			c-0.122-1.286,0-2.499,0.367-3.643c0.367-1.143,0.927-2.086,1.682-2.829c0.754-0.741,1.621-1.084,2.599-1.028
			c1.304,0,2.405,0.601,3.302,1.8C173.903,423.309,174.352,424.795,174.352,426.565z M174.107,463.593
			c0,1.715-0.418,3.201-1.253,4.457c-0.836,1.258-1.845,1.886-3.027,1.886c-1.305,0-2.396-0.613-3.271-1.843
			c-0.877-1.229-1.315-2.729-1.315-4.5v-18.085c0-1.828,0.438-3.356,1.315-4.586c0.876-1.228,1.966-1.843,3.271-1.843
			c1.182,0,2.191,0.644,3.027,1.929c0.835,1.286,1.253,2.786,1.253,4.5V463.593z"/>
		<path fill="#FFFFFF" d="M188.05,463.604c0,1.712-0.418,3.195-1.253,4.45c-0.836,1.255-1.845,1.882-3.027,1.882
			c-1.305,0-2.396-0.612-3.271-1.839c-0.877-1.227-1.315-2.724-1.315-4.493v-36.877c0-1.768,0.438-3.28,1.315-4.535
			c0.876-1.255,1.966-1.883,3.271-1.883c1.182,0,2.191,0.643,3.027,1.926c0.835,1.283,1.253,2.78,1.253,4.492V463.604z"/>
		<path fill="#FFFFFF" d="M201.993,463.604c0,1.712-0.418,3.195-1.253,4.45c-0.836,1.255-1.845,1.882-3.027,1.882
			c-1.305,0-2.396-0.612-3.271-1.839c-0.877-1.227-1.315-2.724-1.315-4.493v-36.877c0-1.768,0.438-3.28,1.315-4.535
			c0.876-1.255,1.966-1.883,3.271-1.883c1.182,0,2.191,0.643,3.027,1.926c0.835,1.283,1.253,2.78,1.253,4.492V463.604z"/>
		<path fill="#FFFFFF" d="M216.181,426.565c0.04,1.372-0.225,2.571-0.795,3.6c-0.571,1.029-1.274,1.787-2.11,2.271
			c-0.836,0.486-1.723,0.658-2.66,0.515c-0.938-0.142-1.753-0.729-2.446-1.757c-0.733-0.972-1.162-2.101-1.284-3.386
			c-0.122-1.286,0-2.499,0.367-3.643c0.367-1.143,0.927-2.086,1.682-2.829c0.754-0.741,1.621-1.084,2.599-1.028
			c1.304,0,2.405,0.601,3.302,1.8C215.732,423.309,216.181,424.795,216.181,426.565z M215.936,463.593
			c0,1.715-0.418,3.201-1.253,4.457c-0.836,1.258-1.845,1.886-3.027,1.886c-1.305,0-2.396-0.613-3.271-1.843
			c-0.877-1.229-1.315-2.729-1.315-4.5v-18.085c0-1.828,0.438-3.356,1.315-4.586c0.876-1.228,1.966-1.843,3.271-1.843
			c1.182,0,2.191,0.644,3.027,1.929c0.835,1.286,1.253,2.786,1.253,4.5V463.593z"/>
		<path fill="#FFFFFF" d="M262.537,469.936V458.45l-8.195,11.485h-21.649c-3.263,0-6.075-1.514-8.439-4.543
			c-2.284-3.085-3.385-6.771-3.303-11.057c0.04-4.17,1.284-7.742,3.73-10.714c2.364-2.914,5.238-4.371,8.623-4.371h38.1v30.685
			H262.537z M262.476,451.937h-32.291v5.399h32.291V451.937z"/>
		<path fill="#FFFFFF" d="M276.296,463.354v-24.702h40.301c3.22,0,5.932,1.538,8.133,4.616c2.242,3.077,3.364,6.81,3.364,11.197
			v8.889c0,4.389-1.448,6.582-4.343,6.582c-3.384,0-5.075-2.189-5.075-6.57v-12.372h-33.513v12.372c0,4.381-1.387,6.57-4.159,6.57
			C277.864,469.936,276.296,467.742,276.296,463.354z"/>
		<path fill="#FFFFFF" d="M382.459,463.595c0.04,1.917-0.438,3.453-1.438,4.607c-0.999,1.156-2.415,1.733-4.25,1.733h-33.023
			c-3.222,0-6.034-1.514-8.439-4.543c-2.284-3.085-3.385-6.771-3.303-11.057c0.082-4.228,1.325-7.828,3.73-10.8
			c2.364-2.914,5.238-4.371,8.623-4.371h32.412c3.709,0,5.605,2.058,5.688,6.171c0.04,2.001-0.438,3.587-1.438,4.758
			c-0.999,1.172-2.415,1.757-4.25,1.757H341.24v5.657h35.531C380.48,457.508,382.377,459.536,382.459,463.595z"/>
		<path fill="#FFFFFF" d="M428.631,457.508h3.18c3.709,0,5.605,2.028,5.688,6.087c0.04,1.917-0.438,3.453-1.438,4.607
			c-0.999,1.156-2.415,1.733-4.25,1.733h-33.023c-3.222,0-6.034-1.514-8.439-4.543c-2.284-3.085-3.385-6.771-3.303-11.057
			c0.082-4.285,1.325-7.913,3.73-10.885c2.364-2.971,5.238-4.457,8.623-4.457h32.412c1.793,0,3.088,0.404,3.883,1.212
			s1.396,2.163,1.805,4.064c0.122,0.635,0.184,1.184,0.184,1.645c0,2.135-1.489,4.586-4.465,7.354L428.631,457.508z
			 M423.004,451.679h-26.725v5.829h20.548L423.004,451.679z"/>
	</g>
	<path fill="#FFFFFF" d="M178.111,266.98c-38.345-29.467-53.9-80.734-40.503-126.586c12.07-41.312,47.254-72.358,89.084-81.268
		c42.92-9.142,87.376,8.18,115.038,41.788c28.785,34.974,33.394,86.358,12.768,126.757c-4.762,9.325-10.768,17.901-17.804,25.639
		c-3.636,3.998-7.589,7.698-11.696,11.204c-2.05,1.749-4.185,3.383-6.346,4.99c-3.111,2.314-7.229,3.988-9.251,7.441
		c-2.766,4.719-1.4,12.794-1.4,17.989c0,5.217,0,10.434,0,15.65c3-3.375,5.105-6.75,7.676-10.125
		c-43.459,6.222-86.935,12.442-130.393,18.664c-4.545,0.65-7.717,5.904-7.717,10.125c0,6.104,4.797,9.999,10.496,10.5
		c42,3.695,83.998,7.391,125.998,11.086c-0.931-6.875-1.862-13.75-2.792-20.625c-39.083,9.917-78.167,19.833-117.25,29.75
		c-9.751,2.475-10.339,18.145,0,20.25c31.5,6.415,62.999,12.831,94.499,19.246c-2.092-5.142-4.184-10.283-6.275-15.425
		c-3.889,5.444-7.777,10.807-11.666,16.25c3.022-1.733,6.044-3.282,9.066-5.282c-9.881,0-19.761,0-29.642,0
		c-13.542,0-13.542,21,0,21c9.542,0,19.083,0,28.625,0c6.944,0,9.913-4.881,13.447-9.828c2.768-3.874,5.534-7.707,8.302-11.581
		c3.812-5.337,0.212-14.124-6.075-15.404C262.8,372.771,231,366.376,200,359.961c0,6.75,0,13.5,0,20.25
		c39-9.917,77.966-19.833,117.049-29.75c4.516-1.146,7.608-5.526,7.608-10.125c0-6.104-4.851-9.999-10.55-10.5
		c-42-3.695-84.025-7.391-126.025-11.086c0.931,6.875,1.849,13.75,2.779,20.625c43.458-6.222,86.944-12.442,130.402-18.664
		c4.545-0.65,7.736-5.904,7.736-10.125c0-9.446,0-18.894,0-28.34c-2,3.022-3.5,6.044-5.234,9.066
		c44.613-27.25,69.537-80.867,63.668-132.439c-5.269-46.306-33.963-87.688-75.742-108.527
		c-42.625-21.261-94.46-18.677-134.882,6.425c-39.917,24.788-64.364,69.19-65.123,115.992
		c-0.719,44.341,21.018,85.602,55.827,112.351c4.551,3.497,11.747,0.704,14.365-3.767
		C185.047,275.938,182.64,270.461,178.111,266.98L178.111,266.98z"/>
	<path fill="#FFFFFF" d="M245.71,191.663c0,7.691-2.674,14.279-8.019,19.766c-5.347,5.486-11.868,8.324-19.557,8.512h-31.936
		c-7.597-0.282-14.047-3.164-19.344-8.653c-5.301-5.486-7.95-12.029-7.95-19.625h0.141V107.39h27.857v84.273h30.811V107.39h27.856
		v84.273H245.71z"/>
	<path fill="#FFFFFF" d="M334.272,153.325c-4.548,5.395-10.2,8.701-16.953,9.918h20.54v84.275h-28.277v-69.924h-29.544v13.788
		v28.419c-7.692,0-14.304-2.72-19.837-8.16c-5.536-5.44-8.349-12.05-8.443-19.838h-0.28v-56.556h-0.282
		c0-7.747,2.72-14.372,8.16-19.88c5.438-5.506,12.053-8.307,19.837-8.398v-0.141h61.764v27.718h0.14
		C341.096,141.671,338.821,147.933,334.272,153.325z M309.582,163.243h3.236v-27.996h-32.78v27.996H309.582z"/>
</g>
</svg>
